<svg width="27" height="25" viewBox="0 0 27 25" fill="none" xmlns="http://www.w3.org/2000/svg">
<path d="M0 0H24C25.6569 0 27 1.34315 27 3V22C27 23.6569 25.6569 25 24 25H0V0Z" fill="#2196F3"/>
<path d="M13.2608 12.5014H9.96663M9.87326 12.9332L9.32902 14.559C9.03094 15.4494 8.8819 15.8945 8.98886 16.1687C9.08174 16.4068 9.28123 16.5873 9.52739 16.656C9.81085 16.7351 10.239 16.5424 11.0952 16.1571L16.5847 13.6869C17.4205 13.3107 17.8384 13.1227 17.9675 12.8615C18.0798 12.6345 18.0798 12.3682 17.9675 12.1412C17.8384 11.88 17.4205 11.692 16.5847 11.3159L11.0858 8.84136C10.2321 8.4572 9.80525 8.26512 9.52207 8.34392C9.27614 8.41235 9.07668 8.59237 8.98347 8.83002C8.87615 9.10366 9.02359 9.5479 9.31849 10.4364L9.87432 12.111C9.92496 12.2636 9.95029 12.3399 9.96029 12.4179C9.96916 12.4872 9.96907 12.5573 9.96002 12.6265C9.94982 12.7045 9.9243 12.7807 9.87326 12.9332Z" stroke="white" stroke-linecap="round" stroke-linejoin="round"/>
</svg>
